<?xml version="1.0" encoding="UTF-8"?>
<svg width="52px" height="45px" viewBox="0 0 52 45" version="1.1" xmlns="http://www.w3.org/2000/svg" xmlns:xlink="http://www.w3.org/1999/xlink">
    <title>logo</title>
    <g id="Page-1" stroke="none" strokeWidth="1" fill="none" fillRule="evenodd">
        <g id="logo">
            <rect id="Rectangle" x="0" y="0" width="52" height="45"></rect>
            <path d="M41.319,21.705 L43.755,21.705 C44.427,21.705 44.9975,21.635 45.4665,21.495 C45.9355,21.355 46.31,21.1695 46.59,20.9385 C46.87,20.7075 47.073,20.4345 47.199,20.1195 C47.325,19.8045 47.388,19.465 47.388,19.101 C47.388,18.751 47.325,18.4185 47.199,18.1035 C47.073,17.7885 46.87,17.512 46.59,17.274 C46.31,17.036 45.9355,16.8505 45.4665,16.7175 C44.9975,16.5845 44.427,16.518 43.755,16.518 L41.319,16.518 L41.319,21.705 Z M39.807,15.132 L44.133,15.132 C45.645,15.132 46.8385,15.461 47.7135,16.119 C48.5885,16.777 49.026,17.771 49.026,19.101 C49.026,20.431 48.5885,21.4285 47.7135,22.0935 C46.8385,22.7585 45.645,23.091 44.133,23.091 L41.319,23.091 L41.319,30 L39.807,30 L39.807,15.132 Z" id="path-3" stroke="#D8D8D8" strokeWidth="2" fill="#D8D8D8" fillRule="nonzero"></path>
            <polygon id="path-2" stroke="#D8D8D8" strokeWidth="2" fill="#D8D8D8" fillRule="nonzero" points="27.197 21.075 31.355 15.132 33.245 15.132 28.205 22.188 33.665 30 31.67 30 27.134 23.259 22.577 30 20.687 30 26.126 22.188 21.107 15.132 23.144 15.132"></polygon>
            <path d="M4.318,28.614 L7.258,28.614 C8.392,28.614 9.3755,28.4425 10.2085,28.0995 C11.0415,27.7565 11.7345,27.3015 12.2875,26.7345 C12.8405,26.1675 13.25,25.5235 13.516,24.8025 C13.782,24.0815 13.915,23.336 13.915,22.566 C13.915,21.796 13.782,21.0505 13.516,20.3295 C13.25,19.6085 12.8405,18.9645 12.2875,18.3975 C11.7345,17.8305 11.0415,17.3755 10.2085,17.0325 C9.3755,16.6895 8.392,16.518 7.258,16.518 L4.318,16.518 L4.318,28.614 Z M2.806,15.132 L7.741,15.132 C8.665,15.132 9.5925,15.286 10.5235,15.594 C11.4545,15.902 12.2945,16.3675 13.0435,16.9905 C13.7925,17.6135 14.398,18.3905 14.86,19.3215 C15.322,20.2525 15.553,21.334 15.553,22.566 C15.553,23.812 15.322,24.897 14.86,25.821 C14.398,26.745 13.7925,27.5185 13.0435,28.1415 C12.2945,28.7645 11.4545,29.23 10.5235,29.538 C9.5925,29.846 8.665,30 7.741,30 L2.806,30 L2.806,15.132 Z" id="path-1" stroke="#D8D8D8" strokeWidth="2" fill="#D8D8D8" fillRule="nonzero"></path>
        </g>
    </g>
</svg>