<?xml version="1.0" encoding="UTF-8"?>
<svg width="52px" height="45px" viewBox="0 0 52 45" version="1.1" xmlns="http://www.w3.org/2000/svg" xmlns:xlink="http://www.w3.org/1999/xlink">
    <title>logo</title>
    <defs>
        <path d="M8.318,28.614 L11.258,28.614 C12.392,28.614 13.3755,28.4425 14.2085,28.0995 C15.0415,27.7565 15.7345,27.3015 16.2875,26.7345 C16.8405,26.1675 17.25,25.5235 17.516,24.8025 C17.782,24.0815 17.915,23.336 17.915,22.566 C17.915,21.796 17.782,21.0505 17.516,20.3295 C17.25,19.6085 16.8405,18.9645 16.2875,18.3975 C15.7345,17.8305 15.0415,17.3755 14.2085,17.0325 C13.3755,16.6895 12.392,16.518 11.258,16.518 L8.318,16.518 L8.318,28.614 Z M6.806,15.132 L11.741,15.132 C12.665,15.132 13.5925,15.286 14.5235,15.594 C15.4545,15.902 16.2945,16.3675 17.0435,16.9905 C17.7925,17.6135 18.398,18.3905 18.86,19.3215 C19.322,20.2525 19.553,21.334 19.553,22.566 C19.553,23.812 19.322,24.897 18.86,25.821 C18.398,26.745 17.7925,27.5185 17.0435,28.1415 C16.2945,28.7645 15.4545,29.23 14.5235,29.538 C13.5925,29.846 12.665,30 11.741,30 L6.806,30 L6.806,15.132 Z" id="path-1"></path>
        <polygon id="path-2" points="27.197 21.075 31.355 15.132 33.245 15.132 28.205 22.188 33.665 30 31.67 30 27.134 23.259 22.577 30 20.687 30 26.126 22.188 21.107 15.132 23.144 15.132"></polygon>
        <path d="M37.319,21.705 L39.755,21.705 C40.427,21.705 40.9975,21.635 41.4665,21.495 C41.9355,21.355 42.31,21.1695 42.59,20.9385 C42.87,20.7075 43.073,20.4345 43.199,20.1195 C43.325,19.8045 43.388,19.465 43.388,19.101 C43.388,18.751 43.325,18.4185 43.199,18.1035 C43.073,17.7885 42.87,17.512 42.59,17.274 C42.31,17.036 41.9355,16.8505 41.4665,16.7175 C40.9975,16.5845 40.427,16.518 39.755,16.518 L37.319,16.518 L37.319,21.705 Z M35.807,15.132 L40.133,15.132 C41.645,15.132 42.8385,15.461 43.7135,16.119 C44.5885,16.777 45.026,17.771 45.026,19.101 C45.026,20.431 44.5885,21.4285 43.7135,22.0935 C42.8385,22.7585 41.645,23.091 40.133,23.091 L37.319,23.091 L37.319,30 L35.807,30 L35.807,15.132 Z" id="path-3"></path>
    </defs>
    <g id="Page-1" stroke="none" stroke-width="1" fill="none" fill-rule="evenodd">
        <g id="logo" transform="translate(0.000000, 0.000000)">
            <rect id="Rectangle" x="0" y="0" width="52" height="45"></rect>
            <g id="D" fill-rule="nonzero">
                <use fill="#000000" xlink:href="#path-1"></use>
                <use fill="#D8D8D8" xlink:href="#path-1"></use>
            </g>
            <g id="X" fill-rule="nonzero">
                <use fill="#000000" xlink:href="#path-2"></use>
                <use fill="#D8D8D8" xlink:href="#path-2"></use>
            </g>
            <g id="P" fill-rule="nonzero">
                <use fill="#000000" xlink:href="#path-3"></use>
                <use fill="#D8D8D8" xlink:href="#path-3"></use>
            </g>
        </g>
    </g>
</svg>